<mxfile host="app.diagrams.net" modified="2020-10-31T03:31:51.645Z" agent="5.0 (X11; Linux x86_64) AppleWebKit/537.36 (KHTML, like Gecko) Chrome/86.0.4240.111 Safari/537.36" etag="bbcHWU-O7gms0LoE0uMX" version="13.8.8" type="github">
  <diagram id="eH38mXIdh1BwguPoMlte" name="Page-1">
    <mxGraphModel dx="717" dy="721" grid="1" gridSize="10" guides="1" tooltips="1" connect="1" arrows="1" fold="1" page="1" pageScale="1" pageWidth="850" pageHeight="1100" math="0" shadow="0">
      <root>
        <mxCell id="0" />
        <mxCell id="1" parent="0" />
        <mxCell id="P4ZQeDn3_lB6TeMLKaIa-1" value="192.168.17.93&lt;br&gt;10.10.10.1" style="fontColor=#0066CC;verticalAlign=top;verticalLabelPosition=bottom;labelPosition=center;align=center;html=1;outlineConnect=0;fillColor=#CCCCCC;strokeColor=#6881B3;gradientColor=none;gradientDirection=north;strokeWidth=2;shape=mxgraph.networks.terminal;" vertex="1" parent="1">
          <mxGeometry x="40" y="130" width="110" height="110" as="geometry" />
        </mxCell>
        <mxCell id="P4ZQeDn3_lB6TeMLKaIa-2" value="192.168.17.129&lt;br&gt;10.10.10.2" style="fontColor=#0066CC;verticalAlign=top;verticalLabelPosition=bottom;labelPosition=center;align=center;html=1;outlineConnect=0;fillColor=#CCCCCC;strokeColor=#6881B3;gradientColor=none;gradientDirection=north;strokeWidth=2;shape=mxgraph.networks.terminal;" vertex="1" parent="1">
          <mxGeometry x="280" y="130" width="100" height="100" as="geometry" />
        </mxCell>
        <mxCell id="P4ZQeDn3_lB6TeMLKaIa-3" value="192.168.17.128&lt;br&gt;10.10.10.3" style="fontColor=#0066CC;verticalAlign=top;verticalLabelPosition=bottom;labelPosition=center;align=center;html=1;outlineConnect=0;fillColor=#CCCCCC;strokeColor=#6881B3;gradientColor=none;gradientDirection=north;strokeWidth=2;shape=mxgraph.networks.terminal;" vertex="1" parent="1">
          <mxGeometry x="530" y="130" width="100" height="100" as="geometry" />
        </mxCell>
        <mxCell id="P4ZQeDn3_lB6TeMLKaIa-4" value="10.10.10.0/24" style="rounded=0;whiteSpace=wrap;html=1;fillColor=#fff2cc;strokeColor=#d6b656;" vertex="1" parent="1">
          <mxGeometry x="50" y="310" width="580" height="40" as="geometry" />
        </mxCell>
        <mxCell id="P4ZQeDn3_lB6TeMLKaIa-5" value="" style="rounded=0;whiteSpace=wrap;html=1;" vertex="1" parent="1">
          <mxGeometry x="60" y="10" width="580" as="geometry" />
        </mxCell>
        <mxCell id="P4ZQeDn3_lB6TeMLKaIa-7" value="192.168.17.0/24" style="rounded=0;whiteSpace=wrap;html=1;fillColor=#ffe6cc;strokeColor=#d79b00;" vertex="1" parent="1">
          <mxGeometry x="80" y="20" width="560" height="40" as="geometry" />
        </mxCell>
        <mxCell id="P4ZQeDn3_lB6TeMLKaIa-11" value="" style="endArrow=none;html=1;exitX=0.5;exitY=0;exitDx=0;exitDy=0;exitPerimeter=0;entryX=0.5;entryY=0;entryDx=0;entryDy=0;entryPerimeter=0;" edge="1" parent="1" source="P4ZQeDn3_lB6TeMLKaIa-1" target="P4ZQeDn3_lB6TeMLKaIa-3">
          <mxGeometry width="50" height="50" relative="1" as="geometry">
            <mxPoint x="390" y="210" as="sourcePoint" />
            <mxPoint x="440" y="160" as="targetPoint" />
            <Array as="points">
              <mxPoint x="340" y="60" />
            </Array>
          </mxGeometry>
        </mxCell>
        <mxCell id="P4ZQeDn3_lB6TeMLKaIa-12" value="" style="endArrow=none;html=1;" edge="1" parent="1" source="P4ZQeDn3_lB6TeMLKaIa-2">
          <mxGeometry width="50" height="50" relative="1" as="geometry">
            <mxPoint x="390" y="210" as="sourcePoint" />
            <mxPoint x="340" y="60" as="targetPoint" />
          </mxGeometry>
        </mxCell>
        <mxCell id="P4ZQeDn3_lB6TeMLKaIa-22" value="" style="endArrow=classic;html=1;exitX=0.5;exitY=0;exitDx=0;exitDy=0;" edge="1" parent="1" source="P4ZQeDn3_lB6TeMLKaIa-4" target="P4ZQeDn3_lB6TeMLKaIa-3">
          <mxGeometry width="50" height="50" relative="1" as="geometry">
            <mxPoint x="390" y="210" as="sourcePoint" />
            <mxPoint x="440" y="160" as="targetPoint" />
          </mxGeometry>
        </mxCell>
        <mxCell id="P4ZQeDn3_lB6TeMLKaIa-23" value="" style="endArrow=classic;html=1;" edge="1" parent="1" target="P4ZQeDn3_lB6TeMLKaIa-2">
          <mxGeometry width="50" height="50" relative="1" as="geometry">
            <mxPoint x="340" y="310" as="sourcePoint" />
            <mxPoint x="440" y="160" as="targetPoint" />
          </mxGeometry>
        </mxCell>
        <mxCell id="P4ZQeDn3_lB6TeMLKaIa-24" value="" style="endArrow=classic;html=1;" edge="1" parent="1" target="P4ZQeDn3_lB6TeMLKaIa-1">
          <mxGeometry width="50" height="50" relative="1" as="geometry">
            <mxPoint x="340" y="310" as="sourcePoint" />
            <mxPoint x="440" y="160" as="targetPoint" />
          </mxGeometry>
        </mxCell>
      </root>
    </mxGraphModel>
  </diagram>
</mxfile>
